<?xml version="1.0" standalone="no"?><!DOCTYPE svg PUBLIC "-//W3C//DTD SVG 1.1//EN" "http://www.w3.org/Graphics/SVG/1.1/DTD/svg11.dtd"><svg t="1751222110758" class="icon" viewBox="0 0 1024 1024" version="1.1" xmlns="http://www.w3.org/2000/svg" p-id="6192" xmlns:xlink="http://www.w3.org/1999/xlink" width="200" height="200"><path d="M139.251263 1023.488256a140.10417 140.10417 0 0 1-98.311733-40.93953A137.886612 137.886612 0 0 1 0 884.578155V138.910101A137.943473 137.943473 0 0 1 40.825809 40.768949a136.976845 136.976845 0 0 1 98.254873-40.370926H885.601644a137.090566 137.090566 0 0 1 97.572547 40.257205 137.772891 137.772891 0 0 1 40.541507 98.141152v745.668054a137.60231 137.60231 0 0 1-40.655228 97.970571 138.341496 138.341496 0 0 1-97.743129 40.93953z m0-975.725471a92.96685 92.96685 0 0 0-64.366039 26.553834 91.71592 91.71592 0 0 0-26.838136 64.081737v745.668055a91.943362 91.943362 0 0 0 27.122438 64.309179 90.976734 90.976734 0 0 0 64.650342 26.838136h745.952357a87.792548 87.792548 0 0 0 63.854295-26.894996 90.635571 90.635571 0 0 0 26.781276-64.309179V138.398356a90.237548 90.237548 0 0 0-26.724415-64.252318 90.976734 90.976734 0 0 0-63.740575-26.838136z m372.549725 848.869788a384.490421 384.490421 0 0 1-272.191015-112.81115 380.965073 380.965073 0 0 1-82.504526-122.477428 383.921817 383.921817 0 0 1-30.136043-149.884169 382.329724 382.329724 0 0 1 112.697429-272.134156 385.457049 385.457049 0 0 1 272.134155-112.697429 382.443445 382.443445 0 0 1 147.154867 29.283137 382.500305 382.500305 0 0 1 124.751847 83.414292 381.533678 381.533678 0 0 1 113.038592 272.134156 383.296352 383.296352 0 0 1-30.192904 149.884169 380.282748 380.282748 0 0 1-82.788828 122.534288 379.145538 379.145538 0 0 1-122.249986 82.504526A383.466933 383.466933 0 0 1 511.744128 896.632573z m109.05836-267.244156a157.276029 157.276029 0 0 1-105.533011 42.759065h-8.472209l-4.946859 6.880115a252.574157 252.574157 0 0 1-57.372203 57.997668 178.48498 178.48498 0 0 1-96.66278 34.116275l-56.860459 2.501861 49.184297 28.771392a340.537287 340.537287 0 0 0 171.661725 46.966738 377.780887 377.780887 0 0 0 67.607085-6.595813l4.264535-0.796046 3.354767-2.729302a178.655561 178.655561 0 0 0 61.295574-202.650675l-8.074185-25.246043z m47.649064-152.840913a151.589983 151.589983 0 0 1 4.435116 34.74174 158.015215 158.015215 0 0 1-20.299184 77.671387l-4.207673 7.44872 3.582208 7.789883a204.697651 204.697651 0 0 1 3.297907 178.996724l-28.145927 53.448831 51.686157-31.273253a356.173913 356.173913 0 0 0 71.87162-55.609528 328.824032 328.824032 0 0 0 81.594758-132.428008l1.25093-3.866512-0.682326-3.980232a176.949747 176.949747 0 0 0-144.539285-153.238936l-25.92837-5.686046z m-493.833083 34.74174a335.476706 335.476706 0 0 0 85.290688 224.883114l2.729302 3.070465 3.866511 1.421511a205.721139 205.721139 0 0 0 72.269643 13.987673 177.632073 177.632073 0 0 0 132.939752-62.546504l17.513022-19.503138-25.018602-7.733022a163.189516 163.189516 0 0 1-65.446388-39.063135l-2.274418-2.843023-0.682326-0.682325a141.241379 141.241379 0 0 1-21.322672-27.747904l-4.378255-7.39186-8.585929-0.796046a202.593814 202.593814 0 0 1-156.025099-86.314177l-30.932089-48.899994z m257.91904 80.628131a112.924871 112.924871 0 0 0 79.604643 32.29674 112.924871 112.924871 0 0 0 80.002665-32.979066 113.720917 113.720917 0 0 0 2.103837-157.50347l-1.648953-1.933256-0.568605-0.511744a113.720917 113.720917 0 0 0-79.945805-32.467322 113.720917 113.720917 0 0 0-79.945805 32.467322 114.858126 114.858126 0 0 0-1.762674 158.242656l0.852907 0.852907z m195.884281-191.278583a197.021489 197.021489 0 0 1 20.924648 27.918485l4.378256 7.278139 8.415348 0.796046a203.446721 203.446721 0 0 1 156.081959 87.053362l30.98895 49.58232V511.346105a337.523683 337.523683 0 0 0-85.290688-224.485091l-2.729302-3.070465-3.866512-1.478372a206.289744 206.289744 0 0 0-72.497084-14.044533 176.267422 176.267422 0 0 0-132.882892 63.001388l-17.513022 19.8443 25.416625 7.39186a154.489866 154.489866 0 0 1 65.503249 39.802321l0.682325 0.682325zM345.82531 217.604975a341.901938 341.901938 0 0 0-72.497085 55.211506 334.339497 334.339497 0 0 0-81.935921 132.882892l-1.307791 3.923371 0.682326 4.093953a179.110445 179.110445 0 0 0 144.368704 153.523239l25.189184 5.686045-5.060581-25.302904a186.786607 186.786607 0 0 1-4.264535-36.220112 162.166028 162.166028 0 0 1 20.128603-77.330224l3.980232-7.334999-3.411628-7.619301a202.02521 202.02521 0 0 1-2.729302-179.053585l26.724416-50.776389z m166.032539-43.725692a327.573102 327.573102 0 0 0-67.720806 6.709534l-4.037093 0.852907-3.184186 2.615581A178.257538 178.257538 0 0 0 375.62019 386.082514l8.017325 25.132323 19.332556-17.911044a161.654284 161.654284 0 0 1 106.101615-42.247321h8.472209l4.833139-6.936976a201.342884 201.342884 0 0 1 153.523238-91.77278l56.860459-2.103837-48.786274-29.055695A336.102171 336.102171 0 0 0 511.744128 174.049864z m356.230773 717.578988a23.995114 23.995114 0 0 1-17.058137-6.823255 23.483369 23.483369 0 0 1 0-34.116275 23.653951 23.653951 0 0 1 17.058137-6.993837 23.653951 23.653951 0 0 1 17.058138 6.993837 23.824532 23.824532 0 0 1 0 34.116275 24.108834 24.108834 0 0 1-17.114998 6.936976z m-712.234105 0a23.995114 23.995114 0 0 1-17.058137-6.823255 23.483369 23.483369 0 0 1 0-34.116275 23.881393 23.881393 0 0 1 17.058137-6.993837 23.938253 23.938253 0 0 1 17.058138 6.993837 24.108834 24.108834 0 0 1 0 34.116275 23.938253 23.938253 0 0 1-17.114998 6.936976zM868.088622 179.167305a23.710811 23.710811 0 0 1-17.058137-6.993836 23.54023 23.54023 0 0 1-7.164418-17.058138 22.744183 22.744183 0 0 1 6.993836-16.375812 23.653951 23.653951 0 0 1 17.058138-6.993836 23.653951 23.653951 0 0 1 17.058138 6.993836 22.744183 22.744183 0 0 1 6.993836 16.432673 23.483369 23.483369 0 0 1-7.107557 17.058137 23.767672 23.767672 0 0 1-16.830696 7.050697z m-712.234105 0a23.653951 23.653951 0 0 1-17.058137-6.936976 23.426509 23.426509 0 0 1-7.107558-17.058137 22.744183 22.744183 0 0 1 6.993837-16.375812 23.881393 23.881393 0 0 1 17.058137-6.993837 23.881393 23.881393 0 0 1 17.058138 6.993837 22.744183 22.744183 0 0 1 6.880115 16.489533 23.767672 23.767672 0 0 1-6.993836 17.058137 23.653951 23.653951 0 0 1-16.887556 6.936976z" fill="#ccccff" p-id="6193"></path></svg>